<svg width="64" height="64" viewBox="0 0 64 64" fill="none" xmlns="http://www.w3.org/2000/svg">
<path d="M32 7C27.0555 7 22.222 8.46622 18.1108 11.2133C13.9995 13.9603 10.7952 17.8648 8.90302 22.4329C7.01083 27.0011 6.51575 32.0277 7.48038 36.8773C8.44501 41.7268 10.826 46.1814 14.3223 49.6777C17.8187 53.174 22.2732 55.555 27.1228 56.5196C31.9723 57.4843 36.9989 56.9892 41.5671 55.097C46.1353 53.2048 50.0397 50.0005 52.7868 45.8893C55.5338 41.778 57 36.9445 57 32C56.9927 25.3718 54.3565 19.0172 49.6696 14.3304C44.9828 9.64354 38.6282 7.00728 32 7ZM32 55C27.451 55 23.0042 53.6511 19.2219 51.1238C15.4396 48.5965 12.4916 45.0044 10.7508 40.8017C9.00997 36.599 8.55449 31.9745 9.44195 27.5129C10.3294 23.0514 12.5199 18.9532 15.7366 15.7365C18.9532 12.5199 23.0514 10.3294 27.5129 9.44194C31.9745 8.55448 36.599 9.00995 40.8017 10.7508C45.0044 12.4916 48.5965 15.4396 51.1238 19.2219C53.6511 23.0042 55 27.451 55 32C54.9934 38.0979 52.5681 43.9442 48.2562 48.2561C43.9443 52.568 38.098 54.9934 32 55ZM41 37C41 38.5913 40.3679 40.1174 39.2427 41.2426C38.1174 42.3679 36.5913 43 35 43H33V46C33 46.2652 32.8947 46.5196 32.7071 46.7071C32.5196 46.8946 32.2652 47 32 47C31.7348 47 31.4804 46.8946 31.2929 46.7071C31.1054 46.5196 31 46.2652 31 46V43H26C25.7348 43 25.4804 42.8946 25.2929 42.7071C25.1054 42.5196 25 42.2652 25 42C25 41.7348 25.1054 41.4804 25.2929 41.2929C25.4804 41.1054 25.7348 41 26 41H35C36.0609 41 37.0783 40.5786 37.8284 39.8284C38.5786 39.0783 39 38.0609 39 37C39 35.9391 38.5786 34.9217 37.8284 34.1716C37.0783 33.4214 36.0609 33 35 33H29C27.4087 33 25.8826 32.3679 24.7574 31.2426C23.6322 30.1174 23 28.5913 23 27C23 25.4087 23.6322 23.8826 24.7574 22.7574C25.8826 21.6321 27.4087 21 29 21H31V18C31 17.7348 31.1054 17.4804 31.2929 17.2929C31.4804 17.1054 31.7348 17 32 17C32.2652 17 32.5196 17.1054 32.7071 17.2929C32.8947 17.4804 33 17.7348 33 18V21H38C38.2652 21 38.5196 21.1054 38.7071 21.2929C38.8947 21.4804 39 21.7348 39 22C39 22.2652 38.8947 22.5196 38.7071 22.7071C38.5196 22.8946 38.2652 23 38 23H29C27.9391 23 26.9217 23.4214 26.1716 24.1716C25.4214 24.9217 25 25.9391 25 27C25 28.0609 25.4214 29.0783 26.1716 29.8284C26.9217 30.5786 27.9391 31 29 31H35C36.5913 31 38.1174 31.6321 39.2427 32.7574C40.3679 33.8826 41 35.4087 41 37Z" fill="#F4F4F4"/>
</svg>
